<svg width="97" height="38" viewBox="0 0 97 38" fill="none" xmlns="http://www.w3.org/2000/svg">
<path fill-rule="evenodd" clip-rule="evenodd" d="M17.3563 10.5144C16.7961 10.5144 15.6758 10.4779 15.0418 10.3673V10.3683C13.7728 9.85036 12.2427 9.55534 10.6379 9.55534C4.40391 9.55534 0.820426 13.1349 0.820426 16.498C0.820426 19.8611 3.88064 22.1884 7.8748 22.6679C3.91848 22.9273 1.26802 24.2197 1.26802 26.8804C1.26802 29.8343 5.41167 30.9066 9.2554 30.9066H11.4583C14.2942 30.9066 16.1603 32.0137 16.1603 33.8605C16.1603 35.9303 14.2952 37.6292 10.6369 37.6292C6.9787 37.6292 4.32915 36.4472 4.32915 33.75C4.32915 33.1216 4.51557 32.2356 5.33692 31.6456C4.88933 31.2017 4.17965 30.8701 2.98546 30.8701C1.67961 30.8701 0 31.7935 0 33.7509C0 36.5587 3.54564 38 9.25725 38C14.9689 38 21.9106 35.8197 21.9106 30.3157C21.9106 26.6941 18.4019 24.5897 12.0941 24.5897H9.25725C7.01746 24.5897 6.53203 24.4426 6.53203 23.8507C6.53203 23.2589 7.42813 22.7784 9.667 22.7784C15.9379 22.7784 19.5213 19.4172 19.5213 15.9079C19.5213 13.5806 18.2524 12.1028 16.3485 10.9939L16.4233 10.8834C17.6469 11.2637 18.4203 11.8794 19.1076 12.4266C19.8879 13.0477 20.5573 13.5806 21.6485 13.5806C23.0301 13.5806 24 12.7686 24 11.3273C24 10.3673 23.3282 9.29502 21.798 9C20.9019 9.84945 19.7447 10.5144 17.3563 10.5144ZM9.96601 9.84945C10.9359 9.84945 11.6078 12.3247 11.6078 16.3509V16.35C11.6078 20.9681 11.234 22.5199 10.3388 22.5199C9.33108 22.5199 8.69707 20.0821 8.69707 15.9819C8.69707 11.3638 9.10774 9.84945 9.96601 9.84945Z" fill="#1C3B23"/>
<path fill-rule="evenodd" clip-rule="evenodd" d="M42.5877 25.1923C41.0979 26.2317 39.4184 26.846 37.3943 26.846V26.8451C33.5387 26.8451 31.9347 23.2304 31.9347 18.6144C31.9347 18.1151 31.9347 17.5379 31.9725 16.9606H43.5034L44 16.4614C43.7328 11.4231 39.9905 9 34.7981 9C28.1159 9 23 13.7302 23 19.4607C23 25.1913 26.7801 29 33.9201 29C37.9287 29 40.7165 27.8065 42.7784 25.3454L42.5877 25.1923ZM36.4398 14.0012C36.4398 14.6935 36.4021 15.4229 36.2869 16.1922L32.0112 16.6544C32.4304 11.6932 33.1941 9.30812 34.4545 9.30812C35.5996 9.30812 36.4398 11.0389 36.4398 14.0012Z" fill="#1C3B23"/>
<path d="M56.7412 26.9991C56.7412 26.9991 54.9683 26.8914 51.2399 26.8914C47.5115 26.8914 45 26.9991 45 26.9991V26.676C46.4397 26.676 47.1043 25.703 47.1043 24.155V12.9594C47.1043 11.5548 46.4762 11.0509 45.147 11.0509L45 10.7634C50.6118 10.7634 55.3015 9 55.3015 9V11.8076C57.4797 11.0153 59.4362 9 62.3174 9C65.1986 9 66.9687 10.7634 66.9687 14.0757V24.7684C66.9687 26.3885 67.5594 26.6769 69 26.6769V27C69 27 66.5625 26.8923 62.9071 26.8923C59.4727 26.8923 57.4058 27 57.4058 27V26.6769C58.4027 26.6769 58.7725 26.2086 58.7725 24.9838V13.1384C58.7725 12.0951 58.1818 11.5548 57.4432 11.5548C56.7047 11.5548 56.2619 11.8067 55.3024 12.0951V25.3078C55.3024 26.3876 55.9296 26.676 56.743 26.676V26.9991H56.7412Z" fill="#1C3B23"/>
<path d="M84 25.1497C82.7515 26.9504 80.328 28 77.7202 28C74.5984 28 72.3956 26.7993 72.3956 22.7492V9.58739H71V9.25081C74.5984 9.25081 78.3086 6.81224 80.2181 4L80.5114 4.11219V9.25081H82.7515V9.58739H80.5114V23.9499C80.5114 25.1488 81.2097 25.6745 81.9806 25.6745C82.5681 25.6745 83.3026 25.4502 83.8538 24.9995L84 25.1488V25.1497Z" fill="#1C3B23"/>
<path d="M97 28C97 28 95.1889 27.8883 91.3774 27.8883C87.5659 27.8883 85 28 85 28V27.6649C86.4714 27.6649 87.1507 26.656 87.1507 25.0507V4.10681C87.1507 2.65018 86.5087 2.20341 85.1502 2.20341L85 1.86648C90.7355 1.86648 95.5286 0 95.5286 0V26.2461C95.5286 27.3658 96.1696 27.6649 97 27.6649V28V28Z" fill="#1C3B23"/>
</svg>
